<svg xmlns="http://www.w3.org/2000/svg" xmlns:xlink="http://www.w3.org/1999/xlink" width="23" height="23" viewBox="0 0 23 23"><defs><clipPath id="a"><rect width="23" height="23" fill="none" stroke="#878787" stroke-width="2"/></clipPath></defs><g transform="translate(0 0)"><g transform="translate(0 0)" clip-path="url(#a)"><path d="M21.924,9.391l-2.508-.479a8.374,8.374,0,0,0-.646-1.559l1.452-2.1a.316.316,0,0,0-.037-.4L17.849,2.517a.318.318,0,0,0-.4-.038L15.334,3.914a8.464,8.464,0,0,0-1.559-.646L13.321.761A.318.318,0,0,0,13.008.5H9.7a.318.318,0,0,0-.313.258L8.913,3.266a8.447,8.447,0,0,0-1.557.645l-2.1-1.45a.318.318,0,0,0-.406.036L2.517,4.834a.316.316,0,0,0-.038.4L3.915,7.349a8.342,8.342,0,0,0-.647,1.559L.761,9.362A.318.318,0,0,0,.5,9.675v3.3a.319.319,0,0,0,.258.313l2.508.477a8.374,8.374,0,0,0,.646,1.559l-1.452,2.1a.318.318,0,0,0,.037.406l2.337,2.337a.318.318,0,0,0,.4.038L7.35,18.768a8.325,8.325,0,0,0,1.557.646l.455,2.507a.318.318,0,0,0,.313.261h3.3a.318.318,0,0,0,.313-.258l.479-2.507a8.362,8.362,0,0,0,1.557-.646l2.1,1.452a.32.32,0,0,0,.406-.037l2.337-2.337a.318.318,0,0,0,.038-.4l-1.436-2.112a8.33,8.33,0,0,0,.647-1.557l2.507-.455a.319.319,0,0,0,.261-.313V9.7A.318.318,0,0,0,21.924,9.391ZM11.341,16.237a4.9,4.9,0,1,1,4.9-4.9A4.9,4.9,0,0,1,11.341,16.237Z" transform="translate(0.159 0.159)" fill="none" stroke="#878787" stroke-miterlimit="10" stroke-width="2"/></g></g></svg>